<?xml version="1.0" encoding="UTF-8"?>
<svg width="100pt" height="100pt" version="1.1" viewBox="0 0 100 100" xmlns="http://www.w3.org/2000/svg">
 <path d="m86.34 56.352c-0.015625-0.023437-0.035156-0.046874-0.054688-0.066406-0.023437-0.019531-0.046875-0.039062-0.070312-0.058594-3.2148-3.1914-7.5664-4.9844-12.098-4.9844-4.5352 0-8.8828 1.793-12.102 4.9844-0.023437 0.019532-0.046875 0.039063-0.070313 0.058594-0.019531 0.019532-0.035156 0.042969-0.054687 0.066406-3.1914 3.2188-4.9844 7.5703-4.9844 12.102s1.793 8.8828 4.9844 12.102c0.019531 0.023437 0.035156 0.046874 0.054687 0.066406 0.023438 0.019531 0.046876 0.039062 0.070313 0.058594 3.2188 3.1914 7.5664 4.9844 12.102 4.9844 4.5312 0 8.8828-1.793 12.098-4.9844 0.023437-0.019532 0.046875-0.039063 0.070312-0.058594 0.019532-0.019532 0.039063-0.042969 0.054688-0.066406 3.1953-3.2188 4.9844-7.5703 4.9844-12.102s-1.7891-8.8828-4.9844-12.102zm-0.082032 13h3.2422c-0.19922 3.4609-1.5664 6.75-3.875 9.3359l-2.2852-2.2891c-0.35156-0.35156-0.92188-0.35156-1.2734 0-0.35156 0.35156-0.35156 0.92187 0 1.2734l2.2852 2.2852h-0.003906c-2.582 2.3086-5.875 3.6719-9.332 3.875v-3.2305c0-0.5-0.40234-0.90234-0.90234-0.90234-0.49609 0-0.89844 0.40234-0.89844 0.90234v3.2383c-3.4609-0.20312-6.75-1.5664-9.332-3.875l2.2852-2.2852h-0.003907c0.35547-0.35156 0.35547-0.92188 0.003907-1.2773-0.35156-0.35156-0.92188-0.35547-1.2734-0.003906l-2.2852 2.2852c-2.3086-2.5859-3.6758-5.875-3.875-9.332h3.2383c0.49609 0 0.89844-0.40625 0.89844-0.90234 0-0.49609-0.40234-0.89844-0.89844-0.89844h-3.2383c0.19922-3.4609 1.5664-6.75 3.875-9.3359l2.2852 2.2852c0.35156 0.35156 0.92188 0.35156 1.2695 0 0.35156-0.35156 0.35156-0.92188 0-1.2734l-2.2852-2.2852h0.003906c2.582-2.3086 5.875-3.6719 9.332-3.8711v3.2383c0 0.49609 0.40234 0.89844 0.90234 0.89844 0.49609 0 0.89844-0.40234 0.89844-0.89844v-3.2383c3.4609 0.19922 6.75 1.5664 9.3359 3.875l-2.2852 2.2852c-0.18359 0.16406-0.29297 0.39844-0.29688 0.64453-0.007812 0.24609 0.089844 0.48438 0.26172 0.66016 0.17578 0.17578 0.41406 0.26953 0.66016 0.26172 0.25-0.003906 0.48047-0.11328 0.64844-0.29688l2.2852-2.2852h-0.003906c2.3125 2.5859 3.6797 5.875 3.8789 9.3359h-3.2422c-0.49609 0-0.89844 0.40234-0.89844 0.90234 0 0.49609 0.40234 0.89844 0.89844 0.89844zm-7.2266-5.8164v0.003906c0.16797 0.16797 0.26562 0.39844 0.26562 0.63672s-0.097656 0.46484-0.26562 0.63672l-3.1289 3.1289c0.24219 0.83203-0.12891 1.7188-0.88672 2.1367v6.9453c0 0.5-0.40234 0.90234-0.89844 0.90234-0.5 0-0.90234-0.40234-0.90234-0.90234v-6.9453c-0.82812-0.45703-1.1836-1.4648-0.82031-2.3398 0.35938-0.875 1.3242-1.3359 2.2344-1.0703l3.1289-3.1289v-0.003906c0.35156-0.34766 0.92188-0.34766 1.2734 0zm15.969 4.918c-0.007812-5.3828-2.0859-10.555-5.8086-14.441-3.7227-3.8828-8.8008-6.1875-14.176-6.4258v-41.516c0-0.49609-0.40234-0.89844-0.89844-0.89844h-64.238c-0.5 0-0.90234 0.40234-0.90234 0.89844v10.199h-2.3984v0.003907c-0.875 0.003906-1.5781 0.71094-1.5781 1.582v3.3594c0 0.875 0.70703 1.582 1.582 1.5859h2.3984v8.707h-2.3984c-0.87109 0-1.5781 0.70703-1.582 1.582v3.3594-0.003907c0 0.875 0.71094 1.5859 1.5859 1.5859h2.3984v8.707h-2.3984c-0.875 0-1.5859 0.70703-1.5859 1.582v3.3594c0 0.87109 0.71094 1.582 1.5859 1.582h2.3984v8.707h-2.3984c-0.875 0-1.5859 0.71094-1.5859 1.5859v3.3594-0.003906c0 0.875 0.71094 1.582 1.5859 1.5859h2.3984v8.7031h-2.3984c-0.875 0-1.5859 0.71094-1.5859 1.5859v3.3555c0 0.875 0.71094 1.5859 1.5859 1.5859h2.3984v10.199c0 0.49609 0.40234 0.89844 0.89844 0.89844h64.234c0.49609 0 0.89844-0.40234 0.89844-0.89844v-4.6094c5.375-0.23828 10.453-2.5391 14.176-6.4258s5.8008-9.0586 5.8086-14.438zm-88.199-50.379h6.1562v2.9258h-6.1562zm0 15.23h6.1562v2.9258h-6.1562zm0 15.23h6.1562v2.9258l-6.1562 0.003906zm0 15.23h6.1562v2.9258l-6.1562 0.003906zm0 15.234h6.1562v2.9258h-6.1562zm3.9805 14.027v-9.3008h2.3984c0.875 0 1.582-0.71094 1.582-1.582v-3.3594c0-0.42188-0.16797-0.82422-0.46484-1.1211-0.30078-0.30078-0.70312-0.46484-1.125-0.46484h-2.3984v-8.7031h2.3984c0.875-0.003906 1.582-0.71094 1.5859-1.5859v-3.3555c-0.003906-0.875-0.71094-1.5859-1.5859-1.5859h-2.3984v-8.707h2.3984c0.875 0 1.582-0.70703 1.5859-1.582v-3.3594c-0.003906-0.875-0.71094-1.582-1.5859-1.582h-2.3984v-8.707h2.3984c0.875 0 1.582-0.71094 1.5859-1.5859v-3.3555c-0.003906-0.875-0.71094-1.582-1.5859-1.5859h-2.3984v-8.7031h2.3984c0.875 0 1.582-0.71094 1.5859-1.5859v-3.3594c-0.003906-0.87109-0.71094-1.582-1.5859-1.582h-2.3984v-9.3008h62.441v40.613c-7.2383 0.3125-13.801 4.3594-17.332 10.688-3.5312 6.3242-3.5312 14.031 0 20.359 3.5312 6.3281 10.094 10.371 17.332 10.684v3.7109zm63.34-5.4883-0.003906-0.003906c-5.0625 0.003906-9.918-2.0078-13.496-5.5859-3.582-3.5781-5.5938-8.4336-5.5938-13.496s2.0117-9.918 5.5898-13.496c3.5781-3.582 8.4336-5.5938 13.496-5.5938s9.918 2.0117 13.496 5.5938c3.5781 3.5781 5.5898 8.4336 5.5898 13.496-0.003907 5.0586-2.0156 9.9102-5.5938 13.488s-8.4297 5.5898-13.488 5.5977zm-44.336-73.379h-8.9531c-0.49609 0-0.89844 0.40234-0.89844 0.89844v8.9531c0 0.5 0.40234 0.90234 0.89844 0.90234h8.9531c0.49609 0 0.90234-0.40234 0.90234-0.90234v-8.9531c0-0.23828-0.097656-0.46484-0.26562-0.63672-0.16797-0.16797-0.39844-0.26172-0.63672-0.26172zm-0.89844 8.9531h-7.1523v-7.1523h7.1523zm5.9688-8.1133c0-0.49609 0.40234-0.89844 0.89844-0.89844h29.469c0.49609 0 0.89844 0.40234 0.89844 0.89844s-0.40234 0.89844-0.89844 0.89844h-29.469c-0.49609 0-0.89844-0.40234-0.89844-0.89844zm0 4.4766c0-0.49609 0.40234-0.90234 0.89844-0.90234h29.469c0.49609 0 0.89844 0.40625 0.89844 0.90234 0 0.49609-0.40234 0.89844-0.89844 0.89844h-29.469c-0.23828 0-0.46875-0.09375-0.63672-0.26172-0.16797-0.17188-0.26563-0.39844-0.26172-0.64062zm0 4.4766c0-0.5 0.40234-0.90234 0.89844-0.90234h29.469c0.49609 0 0.89844 0.40234 0.89844 0.90234 0 0.49609-0.40234 0.89844-0.89844 0.89844h-29.469c-0.23828 0-0.46875-0.09375-0.63672-0.26562-0.16797-0.16797-0.26563-0.39844-0.26172-0.63672zm-5.0664 5.4414h-8.957c-0.49609 0-0.89844 0.40234-0.89844 0.89844v8.9531c0 0.49609 0.40234 0.90234 0.89844 0.90234h8.9531c0.49609 0 0.90234-0.40625 0.90234-0.90234v-8.9531c0-0.23828-0.097656-0.46875-0.26562-0.63672s-0.39844-0.26562-0.63672-0.26562zm-0.89844 8.9531h-7.1562v-7.1562h7.1523zm5.9688-8.1133-0.003906-0.003906c0-0.49609 0.40234-0.89844 0.89844-0.89844h29.469c0.49609 0 0.89844 0.40234 0.89844 0.89844 0 0.5-0.40234 0.90234-0.89844 0.90234h-29.469c-0.23828 0-0.46875-0.097656-0.63672-0.26562-0.16797-0.16797-0.26563-0.39844-0.26172-0.63672zm0 4.4766-0.003906-0.003907c0-0.49609 0.40234-0.89844 0.89844-0.89844h29.469c0.49609 0 0.89844 0.40234 0.89844 0.89844 0 0.49609-0.40234 0.90234-0.89844 0.90234h-29.469c-0.23828 0-0.46875-0.097656-0.63672-0.26562-0.16797-0.16797-0.26563-0.39844-0.26172-0.63672zm0 4.4766-0.003906-0.003906c0-0.49609 0.40234-0.89844 0.89844-0.89844h29.469c0.49609 0 0.89844 0.40234 0.89844 0.89844s-0.40234 0.90234-0.89844 0.90234h-29.469c-0.23828 0-0.46875-0.097657-0.63672-0.26563-0.16797-0.16797-0.26563-0.39844-0.26172-0.63672zm-5.0664 5.4414-8.9609-0.003906c-0.49609 0-0.89844 0.40234-0.89844 0.89844v8.9531c0 0.5 0.40234 0.90234 0.89844 0.90234h8.9531c0.49609 0 0.90234-0.40234 0.90234-0.90234v-8.9531c0-0.23828-0.097656-0.46875-0.26562-0.63672s-0.39844-0.26172-0.63672-0.26172zm-0.89844 8.9531-7.1602-0.003906v-7.1523h7.1523zm5.9688-8.1133-0.007812-0.003906c0-0.5 0.40234-0.90234 0.89844-0.90234h29.469c0.49609 0 0.89844 0.40234 0.89844 0.90234 0 0.49609-0.40234 0.89844-0.89844 0.89844h-29.469c-0.23828 0-0.46875-0.09375-0.63672-0.26562-0.16797-0.16797-0.26563-0.39844-0.26172-0.63672zm0 4.4766-0.007812-0.007812c0-0.49609 0.40234-0.89844 0.89844-0.89844h22.32c0.49609 0 0.89844 0.40234 0.89844 0.89844 0 0.5-0.40234 0.90234-0.89844 0.90234h-22.32c-0.23828 0-0.46875-0.097656-0.63672-0.26562-0.16797-0.16797-0.26172-0.39844-0.26172-0.63672zm0 4.4766-0.007812-0.007813c0-0.49609 0.40234-0.89844 0.89844-0.89844h17.285c0.49609 0 0.89844 0.40234 0.89844 0.89844 0 0.49609-0.40234 0.90234-0.89844 0.90234h-17.285c-0.23828 0-0.46875-0.097656-0.63672-0.26562-0.16797-0.16797-0.26172-0.39844-0.26172-0.63672zm-5.0664 5.4414-8.9648-0.007812c-0.49609 0-0.89844 0.40625-0.89844 0.90234v8.9531c0 0.49609 0.40234 0.89844 0.89844 0.89844h8.9531c0.49609 0 0.90234-0.40234 0.90234-0.89844v-8.9531c0-0.24219-0.097656-0.46875-0.26562-0.63672-0.16797-0.17188-0.39844-0.26562-0.63672-0.26562zm-0.89844 8.9531-7.1641-0.007812v-7.1523h7.1523zm5.9688-8.1133-0.011719-0.007813c0-0.49609 0.40234-0.89844 0.89844-0.89844h14.527c0.49609 0 0.89844 0.40234 0.89844 0.89844 0 0.49609-0.40234 0.89844-0.89844 0.89844h-14.527c-0.23828 0-0.46875-0.09375-0.63672-0.26172-0.16797-0.17188-0.26563-0.39844-0.26172-0.64062zm0 4.4766-0.011719-0.007813c0-0.49609 0.40234-0.90234 0.89844-0.90234h13.738c0.5 0 0.90234 0.40625 0.90234 0.90234s-0.40234 0.89844-0.90234 0.89844h-13.738c-0.23828 0-0.46875-0.09375-0.63672-0.26172-0.16797-0.17188-0.26172-0.39844-0.26172-0.63672zm0 4.4766-0.011719-0.007812c0-0.5 0.40234-0.90234 0.89844-0.90234h13.699c0.49609 0 0.90234 0.40234 0.90234 0.90234 0 0.49609-0.40625 0.89844-0.90234 0.89844h-13.699c-0.23828 0-0.46875-0.09375-0.63672-0.26562-0.16797-0.16797-0.26172-0.39453-0.26172-0.63672zm-5.0664 5.4414-8.9688-0.007812c-0.49609 0-0.89844 0.40234-0.89844 0.89844v8.9531c0 0.49609 0.40234 0.89844 0.89844 0.89844h8.9531c0.49609 0 0.90234-0.40234 0.90234-0.89844v-8.9531c0-0.23828-0.097656-0.46875-0.26562-0.63672-0.16797-0.17187-0.39844-0.26562-0.63672-0.26562zm-0.89844 8.9531-7.168-0.007812v-7.1562h7.1523zm5.9688-8.1133-0.015625-0.011719c0-0.49609 0.40234-0.89844 0.89844-0.89844h15.109c0.49609 0 0.89844 0.40234 0.89844 0.89844 0 0.5-0.40234 0.90234-0.89844 0.90234h-15.109c-0.23828 0-0.46875-0.097656-0.63672-0.26562-0.16797-0.16797-0.26563-0.39844-0.26172-0.63672zm0 4.4766-0.015625-0.011718c0-0.49609 0.40234-0.89844 0.89844-0.89844h16.66c0.5 0 0.90234 0.40234 0.90234 0.89844s-0.40234 0.90234-0.90234 0.90234h-16.66c-0.23828 0-0.46875-0.097657-0.63672-0.26563-0.16797-0.17187-0.26563-0.39844-0.26172-0.64062zm22.629 4.4766-0.019531-0.011719c0 0.49609-0.40234 0.89844-0.89844 0.89844h-20.828c-0.49609 0-0.89844-0.40234-0.89844-0.89844s0.40234-0.89844 0.89844-0.89844h20.828c0.49609 0 0.89844 0.40234 0.89844 0.89844z" fill="#d4af36"/>
</svg>
